{
  "accessors": [
    {
      "name": "Car___Volkswagen_Golf__1991__RR_Wheel_1_0_positions",
      "componentType": 5126,
      "count": 416,
      "min": [
        0.6003000140190125,
        -0.003599999938160181,
        3.0913000106811523
      ],
      "max": [
        0.7836999893188477,
        0.580299973487854,
        3.675100088119507
      ],
      "type": "VEC3",
      "bufferView": 0,
      "byteOffset": 0
    },
    {
      "name": "Car___Volkswagen_Golf__1991__RR_Wheel_1_0_normals",
      "componentType": 5126,
      "count": 416,
      "min": [
        -0.9997867941856384,
        -0.9999999403953552,
        -0.9999999403953552
      ],
      "max": [
        0.9997867941856384,
        0.9999999403953552,
        0.9999999403953552
      ],
      "type": "VEC3",
      "bufferView": 1,
      "byteOffset": 0
    },
    {
      "name": "Car___Volkswagen_Golf__1991__RR_Wheel_1_0_indices",
      "componentType": 5123,
      "count": 2304,
      "min": [
        0
      ],
      "max": [
        415
      ],
      "type": "SCALAR",
      "bufferView": 2,
      "byteOffset": 0
    },
    {
      "name": "Car___Volkswagen_Golf__1991__RR_Wheel_1_1_positions",
      "componentType": 5126,
      "count": 682,
      "min": [
        0.5972999930381775,
        0.08900000154972076,
        3.183799982070923
      ],
      "max": [
        0.7867000102996826,
        0.4876999855041504,
        3.5826001167297363
      ],
      "type": "VEC3",
      "bufferView": 0,
      "byteOffset": 4992
    },
    {
      "name": "Car___Volkswagen_Golf__1991__RR_Wheel_1_1_normals",
      "componentType": 5126,
      "count": 682,
      "min": [
        -1,
        -0.9553107619285583,
        -0.9553390145301819
      ],
      "max": [
        1,
        0.9553390145301819,
        0.9553759694099426
      ],
      "type": "VEC3",
      "bufferView": 1,
      "byteOffset": 4992
    },
    {
      "name": "Car___Volkswagen_Golf__1991__RR_Wheel_1_1_indices",
      "componentType": 5123,
      "count": 2784,
      "min": [
        0
      ],
      "max": [
        681
      ],
      "type": "SCALAR",
      "bufferView": 2,
      "byteOffset": 4608
    },
    {
      "name": "Car___Volkswagen_Golf__1991__LR_Wheel_1_0_positions",
      "componentType": 5126,
      "count": 658,
      "min": [
        -0.7867000102996826,
        0.08900000154972076,
        3.183799982070923
      ],
      "max": [
        -0.5972999930381775,
        0.4876999855041504,
        3.5826001167297363
      ],
      "type": "VEC3",
      "bufferView": 0,
      "byteOffset": 13176
    },
    {
      "name": "Car___Volkswagen_Golf__1991__LR_Wheel_1_0_normals",
      "componentType": 5126,
      "count": 658,
      "min": [
        -1,
        -0.9553107619285583,
        -0.9552825093269348
      ],
      "max": [
        1,
        0.9553390145301819,
        0.9552825093269348
      ],
      "type": "VEC3",
      "bufferView": 1,
      "byteOffset": 13176
    },
    {
      "name": "Car___Volkswagen_Golf__1991__LR_Wheel_1_0_indices",
      "componentType": 5123,
      "count": 2784,
      "min": [
        0
      ],
      "max": [
        657
      ],
      "type": "SCALAR",
      "bufferView": 2,
      "byteOffset": 10176
    },
    {
      "name": "Car___Volkswagen_Golf__1991__LR_Wheel_1_1_positions",
      "componentType": 5126,
      "count": 416,
      "min": [
        -0.7836999893188477,
        -0.003599999938160181,
        3.0913000106811523
      ],
      "max": [
        -0.6003000140190125,
        0.580299973487854,
        3.675100088119507
      ],
      "type": "VEC3",
      "bufferView": 0,
      "byteOffset": 21072
    },
    {
      "name": "Car___Volkswagen_Golf__1991__LR_Wheel_1_1_normals",
      "componentType": 5126,
      "count": 416,
      "min": [
        -0.9997867941856384,
        -0.9999999403953552,
        -0.9999999403953552
      ],
      "max": [
        0.9997879862785339,
        0.9999999403953552,
        0.9999999403953552
      ],
      "type": "VEC3",
      "bufferView": 1,
      "byteOffset": 21072
    },
    {
      "name": "Car___Volkswagen_Golf__1991__LR_Wheel_1_1_indices",
      "componentType": 5123,
      "count": 2304,
      "min": [
        0
      ],
      "max": [
        415
      ],
      "type": "SCALAR",
      "bufferView": 2,
      "byteOffset": 15744
    },
    {
      "name": "Car___Volkswagen_Golf__1991__RF_Wheel_1_0_positions",
      "componentType": 5126,
      "count": 658,
      "min": [
        0.5972999930381775,
        0.08900000154972076,
        0.646399974830998
      ],
      "max": [
        0.7867000102996826,
        0.4876999855041504,
        1.045199990272530
      ],
      "type": "VEC3",
      "bufferView": 0,
      "byteOffset": 26064
    },
    {
      "name": "Car___Volkswagen_Golf__1991__RF_Wheel_1_0_normals",
      "componentType": 5126,
      "count": 658,
      "min": [
        -1,
        -0.9553107619285583,
        -0.9553107619285583
      ],
      "max": [
        1,
        0.9553107619285583,
        0.9552454948425293
      ],
      "type": "VEC3",
      "bufferView": 1,
      "byteOffset": 26064
    },
    {
      "name": "Car___Volkswagen_Golf__1991__RF_Wheel_1_0_indices",
      "componentType": 5123,
      "count": 2784,
      "min": [
        0
      ],
      "max": [
        657
      ],
      "type": "SCALAR",
      "bufferView": 2,
      "byteOffset": 20352
    },
    {
      "name": "Car___Volkswagen_Golf__1991__RF_Wheel_1_1_positions",
      "componentType": 5126,
      "count": 416,
      "min": [
        0.6003000140190125,
        -0.003599999938160181,
        0.5539000034333075
      ],
      "max": [
        0.7836999893188477,
        0.580299973487854,
        1.1376999616630925
      ],
      "type": "VEC3",
      "bufferView": 0,
      "byteOffset": 33960
    },
    {
      "name": "Car___Volkswagen_Golf__1991__RF_Wheel_1_1_normals",
      "componentType": 5126,
      "count": 416,
      "min": [
        -0.9997879862785339,
        -0.9999999403953552,
        -0.9999999403953552
      ],
      "max": [
        0.9997867941856384,
        0.9999999403953552,
        0.9999999403953552
      ],
      "type": "VEC3",
      "bufferView": 1,
      "byteOffset": 33960
    },
    {
      "name": "Car___Volkswagen_Golf__1991__RF_Wheel_1_1_indices",
      "componentType": 5123,
      "count": 2304,
      "min": [
        0
      ],
      "max": [
        415
      ],
      "type": "SCALAR",
      "bufferView": 2,
      "byteOffset": 25920
    },
    {
      "name": "Car___Volkswagen_Golf__1991__LF_Wheel_1_0_positions",
      "componentType": 5126,
      "count": 658,
      "min": [
        -0.8215000033378601,
        0.09160000085830688,
        0.6527000069618305
      ],
      "max": [
        -0.632099986076355,
        0.4903999865055084,
        1.0513999462127686
      ],
      "type": "VEC3",
      "bufferView": 0,
      "byteOffset": 38952
    },
    {
      "name": "Car___Volkswagen_Golf__1991__LF_Wheel_1_0_normals",
      "componentType": 5126,
      "count": 658,
      "min": [
        -1,
        -0.9552825093269348,
        -0.9553477168083191
      ],
      "max": [
        1,
        0.9553107619285583,
        0.9553107619285583
      ],
      "type": "VEC3",
      "bufferView": 1,
      "byteOffset": 38952
    },
    {
      "name": "Car___Volkswagen_Golf__1991__LF_Wheel_1_0_indices",
      "componentType": 5123,
      "count": 2784,
      "min": [
        0
      ],
      "max": [
        657
      ],
      "type": "SCALAR",
      "bufferView": 2,
      "byteOffset": 30528
    },
    {
      "name": "Car___Volkswagen_Golf__1991__LF_Wheel_1_1_positions",
      "componentType": 5126,
      "count": 416,
      "min": [
        -0.8184999823570251,
        -0.0008999999845400453,
        0.5601999759674072
      ],
      "max": [
        -0.6351000070571899,
        0.5828999876976013,
        1.1440000534057617
      ],
      "type": "VEC3",
      "bufferView": 0,
      "byteOffset": 46848
    },
    {
      "name": "Car___Volkswagen_Golf__1991__LF_Wheel_1_1_normals",
      "componentType": 5126,
      "count": 416,
      "min": [
        -0.9997867941856384,
        -0.9999999403953552,
        -0.9999999403953552
      ],
      "max": [
        0.9997879862785339,
        0.9999999403953552,
        0.9999999403953552
      ],
      "type": "VEC3",
      "bufferView": 1,
      "byteOffset": 46848
    },
    {
      "name": "Car___Volkswagen_Golf__1991__LF_Wheel_1_1_indices",
      "componentType": 5123,
      "count": 2304,
      "min": [
        0
      ],
      "max": [
        415
      ],
      "type": "SCALAR",
      "bufferView": 2,
      "byteOffset": 36096
    },
    {
      "name": "Car___Volkswagen_Golf__1991__body_1_0_positions",
      "componentType": 5126,
      "count": 2148,
      "min": [
        -0.8554999828338623,
        0.17659999430179596,
        0.00019999999494757503
      ],
      "max": [
        0.8554999828338623,
        1.4393999576568604,
        4.110000133514404
      ],
      "type": "VEC3",
      "bufferView": 0,
      "byteOffset": 51840
    },
    {
      "name": "Car___Volkswagen_Golf__1991__body_1_0_normals",
      "componentType": 5126,
      "count": 2148,
      "min": [
        -0.9999884963035583,
        -1,
        -0.9999963641166687
      ],
      "max": [
        0.9999982714653015,
        1,
        0.9987813830375671
      ],
      "type": "VEC3",
      "bufferView": 1,
      "byteOffset": 51840
    },
    {
      "name": "Car___Volkswagen_Golf__1991__body_1_0_indices",
      "componentType": 5123,
      "count": 8508,
      "min": [
        0
      ],
      "max": [
        2147
      ],
      "type": "SCALAR",
      "bufferView": 2,
      "byteOffset": 40704
    },
    {
      "name": "Car___Volkswagen_Golf__1991__body_1_1_positions",
      "componentType": 5126,
      "count": 1780,
      "min": [
        -0.9639000296592712,
        0.30110000252723694,
        0.04619999974966049
      ],
      "max": [
        0.9639000296592712,
        1.4124000072479248,
        4.0619001388549805
      ],
      "type": "VEC3",
      "bufferView": 0,
      "byteOffset": 77616
    },
    {
      "name": "Car___Volkswagen_Golf__1991__body_1_1_normals",
      "componentType": 5126,
      "count": 1780,
      "min": [
        -0.9992391467094421,
        -1,
        -1
      ],
      "max": [
        0.9994369149208069,
        1,
        0.9998432993888855
      ],
      "type": "VEC3",
      "bufferView": 1,
      "byteOffset": 77616
    },
    {
      "name": "Car___Volkswagen_Golf__1991__body_1_1_indices",
      "componentType": 5123,
      "count": 5280,
      "min": [
        0
      ],
      "max": [
        1779
      ],
      "type": "SCALAR",
      "bufferView": 2,
      "byteOffset": 57720
    },
    {
      "name": "Car___Volkswagen_Golf__1991__body_1_2_positions",
      "componentType": 5126,
      "count": 317,
      "min": [
        -0.8554999828338623,
        0.17659999430179596,
        0.09790000319480896
      ],
      "max": [
        0.8554999828338623,
        0.6694999933242798,
        4.030500038146973
      ],
      "type": "VEC3",
      "bufferView": 0,
      "byteOffset": 98976
    },
    {
      "name": "Car___Volkswagen_Golf__1991__body_1_2_normals",
      "componentType": 5126,
      "count": 317,
      "min": [
        -1,
        -1,
        -0.9981070756913031
      ],
      "max": [
        1,
        -0.0001999999803956598,
        0.9999927878379830
      ],
      "type": "VEC3",
      "bufferView": 1,
      "byteOffset": 98976
    },
    {
      "name": "Car___Volkswagen_Golf__1991__body_1_2_indices",
      "componentType": 5123,
      "count": 996,
      "min": [
        0
      ],
      "max": [
        316
      ],
      "type": "SCALAR",
      "bufferView": 2,
      "byteOffset": 68280
    },
    {
      "name": "Car___Volkswagen_Golf__1991__body_1_3_positions",
      "componentType": 5126,
      "count": 182,
      "min": [
        -0.7620000243186951,
        0.9169999957084656,
        1.0930000408172607
      ],
      "max": [
        0.7620000243186951,
        1.3691999913061963,
        3.9472999572753906
      ],
      "type": "VEC3",
      "bufferView": 0,
      "byteOffset": 102780
    },
    {
      "name": "Car___Volkswagen_Golf__1991__body_1_3_normals",
      "componentType": 5126,
      "count": 182,
      "min": [
        -0.9909957647323608,
        0.06789971203007278,
        -0.7936840057373047
      ],
      "max": [
        0.9592961072921753,
        0.8499379754066467,
        0.6273834705352783
      ],
      "type": "VEC3",
      "bufferView": 1,
      "byteOffset": 102780
    },
    {
      "name": "Car___Volkswagen_Golf__1991__body_1_3_indices",
      "componentType": 5123,
      "count": 606,
      "min": [
        0
      ],
      "max": [
        181
      ],
      "type": "SCALAR",
      "bufferView": 2,
      "byteOffset": 70272
    },
    {
      "name": "Car___Volkswagen_Golf__1991__body_1_4_positions",
      "componentType": 5126,
      "count": 84,
      "min": [
        -0.8245000243186951,
        0.41659998893737793,
        0.3709000051021576
      ],
      "max": [
        0.8245000243186951,
        1.3528000116348267,
        3.986299991607666
      ],
      "type": "VEC3",
      "bufferView": 0,
      "byteOffset": 104964
    },
    {
      "name": "Car___Volkswagen_Golf__1991__body_1_4_normals",
      "componentType": 5126,
      "count": 84,
      "min": [
        -0.9856709837913513,
        -0.14270079135894775,
        -0.9993977546691895
      ],
      "max": [
        0.9878503084182739,
        0.6030127270698547,
        0.950101912021637
      ],
      "type": "VEC3",
      "bufferView": 1,
      "byteOffset": 104964
    },
    {
      "name": "Car___Volkswagen_Golf__1991__body_1_4_indices",
      "componentType": 5123,
      "count": 302,
      "min": [
        0
      ],
      "max": [
        83
      ],
      "type": "SCALAR",
      "bufferView": 2,
      "byteOffset": 71484
    },
    {
      "name": "Car___Volkswagen_Golf__1991__body_1_5_positions",
      "componentType": 5126,
      "count": 608,
      "min": [
        -0.7077999711036682,
        0.4244000017642975,
        0.03709999844431877
      ],
      "max": [
        0.7077999711036682,
        0.7409999966621399,
        0.25940001010894775
      ],
      "type": "VEC3",
      "bufferView": 0,
      "byteOffset": 105972
    },
    {
      "name": "Car___Volkswagen_Golf__1991__body_1_5_normals",
      "componentType": 5126,
      "count": 608,
      "min": [
        -0.9925669431686401,
        -0.9940562844276428,
        -0.9115270973051892
      ],
      "max": [
        0.9926178455352783,
        0.9933768510818481,
        0.9978618025779724
      ],
      "type": "VEC3",
      "bufferView": 1,
      "byteOffset": 105972
    },
    {
      "name": "Car___Volkswagen_Golf__1991__body_1_5_indices",
      "componentType": 5123,
      "count": 3486,
      "min": [
        0
      ],
      "max": [
        607
      ],
      "type": "SCALAR",
      "bufferView": 2,
      "byteOffset": 71928
    },
    {
      "name": "Car___Volkswagen_Golf__1991__body_1_6_positions",
      "componentType": 5126,
      "count": 182,
      "min": [
        -0.0544000007212162,
        0.5986999869346619,
        0.07609999924898148
      ],
      "max": [
        0.0544000007212162,
        0.7135999798774719,
        0.13940000534057617
      ],
      "type": "VEC3",
      "bufferView": 0,
      "byteOffset": 113268
    },
    {
      "name": "Car___Volkswagen_Golf__1991__body_1_6_normals",
      "componentType": 5126,
      "count": 182,
      "min": [
        -1,
        -0.9849382042884827,
        -0.9849582314491272
      ],
      "max": [
        1,
        0.9849382042884827,
        0.989761233329773
      ],
      "type": "VEC3",
      "bufferView": 1,
      "byteOffset": 113268
    },
    {
      "name": "Car___Volkswagen_Golf__1991__body_1_6_indices",
      "componentType": 5123,
      "count": 546,
      "min": [
        0
      ],
      "max": [
        181
      ],
      "type": "SCALAR",
      "bufferView": 2,
      "byteOffset": 78900
    }
  ],
  "asset": {
    "generator": "obj2gltf",
    "version": "2.0"
  },
  "buffers": [
    {
      "name": "Car-VolkswagenGolf (1991)",
      "byteLength": 310896,
      "uri": "data:application/octet-stream;base64,"
    }
  ],
  "bufferViews": [
    {
      "name": "bufferView_0",
      "buffer": 0,
      "byteLength": 115452,
      "byteOffset": 0,
      "byteStride": 12,
      "target": 34962
    },
    {
      "name": "bufferView_1",
      "buffer": 0,
      "byteLength": 115452,
      "byteOffset": 115452,
      "byteStride": 12,
      "target": 34962
    },
    {
      "name": "bufferView_2",
      "buffer": 0,
      "byteLength": 79992,
      "byteOffset": 230904,
      "target": 34963
    }
  ],
  "materials": [
    {
      "name": "Rubber",
      "pbrMetallicRoughness": {
        "baseColorFactor": [
          0.098,
          0.098,
          0.098,
          1
        ],
        "metallicFactor": 0,
        "roughnessFactor": 0.9313025
      },
      "emissiveFactor": [
        0,
        0,
        0
      ],
      "alphaMode": "OPAQUE",
      "doubleSided": false
    },
    {
      "name": "Chrome",
      "pbrMetallicRoughness": {
        "baseColorFactor": [
          0.6,
          0.6,
          0.6,
          1
        ],
        "metallicFactor": 0,
        "roughnessFactor": 0.944
      },
      "emissiveFactor": [
        0,
        0,
        0
      ],
      "alphaMode": "OPAQUE",
      "doubleSided": false
    },
    {
      "name": "Golf_Body",
      "pbrMetallicRoughness": {
        "baseColorFactor": [
          0.5176,
          0.502,
          0.8588,
          1
        ],
        "metallicFactor": 0,
        "roughnessFactor": 0.931125
      },
      "emissiveFactor": [
        0,
        0,
        0
      ],
      "alphaMode": "OPAQUE",
      "doubleSided": false
    },
    {
      "name": "Golf_plastic",
      "pbrMetallicRoughness": {
        "baseColorFactor": [
          0.098,
          0.098,
          0.098,
          1
        ],
        "metallicFactor": 0,
        "roughnessFactor": 0.9313025
      },
      "emissiveFactor": [
        0,
        0,
        0
      ],
      "alphaMode": "OPAQUE",
      "doubleSided": false
    },
    {
      "name": "Golf_rubber",
      "pbrMetallicRoughness": {
        "baseColorFactor": [
          0.2314,
          0.2314,
          0.2314,
          1
        ],
        "metallicFactor": 0,
        "roughnessFactor": 0.926
      },
      "emissiveFactor": [
        0,
        0,
        0
      ],
      "alphaMode": "OPAQUE",
      "doubleSided": false
    },
    {
      "name": "Golf_win",
      "pbrMetallicRoughness": {
        "baseColorFactor": [
          0.2157,
          0.2157,
          0.2157,
          0.9
        ],
        "metallicFactor": 0,
        "roughnessFactor": 0.928
      },
      "emissiveFactor": [
        0,
        0,
        0
      ],
      "alphaMode": "BLEND",
      "doubleSided": true
    },
    {
      "name": "wire_154215309",
      "pbrMetallicRoughness": {
        "baseColorFactor": [
          0.6039,
          0.8431,
          0.898,
          1
        ],
        "metallicFactor": 0,
        "roughnessFactor": 0.968
      },
      "emissiveFactor": [
        0,
        0,
        0
      ],
      "alphaMode": "OPAQUE",
      "doubleSided": false
    },
    {
      "name": "Golf_lights",
      "pbrMetallicRoughness": {
        "baseColorFactor": [
          0.949,
          0.9647,
          0.5608,
          1
        ],
        "metallicFactor": 0,
        "roughnessFactor": 0.9313025
      },
      "emissiveFactor": [
        0,
        0,
        0
      ],
      "alphaMode": "OPAQUE",
      "doubleSided": false
    },
    {
      "name": "Golf_logo",
      "pbrMetallicRoughness": {
        "baseColorFactor": [
          0.588,
          0.588,
          0.588,
          1
        ],
        "metallicFactor": 0,
        "roughnessFactor": 0.99
      },
      "emissiveFactor": [
        0,
        0,
        0
      ],
      "alphaMode": "OPAQUE",
      "doubleSided": false
    }
  ],
  "meshes": [
    {
      "name": "Car___Volkswagen_Golf__1991__RR_Wheel_1",
      "primitives": [
        {
          "attributes": {
            "POSITION": 0,
            "NORMAL": 1
          },
          "indices": 2,
          "material": 0,
          "mode": 4
        },
        {
          "attributes": {
            "POSITION": 3,
            "NORMAL": 4
          },
          "indices": 5,
          "material": 1,
          "mode": 4
        }
      ]
    },
    {
      "name": "Car___Volkswagen_Golf__1991__LR_Wheel_1",
      "primitives": [
        {
          "attributes": {
            "POSITION": 6,
            "NORMAL": 7
          },
          "indices": 8,
          "material": 1,
          "mode": 4
        },
        {
          "attributes": {
            "POSITION": 9,
            "NORMAL": 10
          },
          "indices": 11,
          "material": 0,
          "mode": 4
        }
      ]
    },
    {
      "name": "Car___Volkswagen_Golf__1991__RF_Wheel_1",
      "primitives": [
        {
          "attributes": {
            "POSITION": 12,
            "NORMAL": 13
          },
          "indices": 14,
          "material": 1,
          "mode": 4
        },
        {
          "attributes": {
            "POSITION": 15,
            "NORMAL": 16
          },
          "indices": 17,
          "material": 0,
          "mode": 4
        }
      ]
    },
    {
      "name": "Car___Volkswagen_Golf__1991__LF_Wheel_1",
      "primitives": [
        {
          "attributes": {
            "POSITION": 18,
            "NORMAL": 19
          },
          "indices": 20,
          "material": 1,
          "mode": 4
        },
        {
          "attributes": {
            "POSITION": 21,
            "NORMAL": 30
          },
          "indices": 23,
          "material": 0,
          "mode": 4
        }
      ]
    },
    {
      "name": "Car___Volkswagen_Golf__1991__body_1",
      "primitives": [
        {
          "attributes": {
            "POSITION": 24,
            "NORMAL": 25
          },
          "indices": 26,
          "material": 2,
          "mode": 4
        },
        {
          "attributes": {
            "POSITION": 27,
            "NORMAL": 28
          },
          "indices": 29,
          "material": 3,
          "mode": 4
        },
        {
          "attributes": {
            "POSITION": 30,
            "NORMAL": 31
          },
          "indices": 32,
          "material": 4,
          "mode": 4
        },
        {
          "attributes": {
            "POSITION": 33,
            "NORMAL": 34
          },
          "indices": 35,
          "material": 5,
          "mode": 4
        },
        {
          "attributes": {
            "POSITION": 36,
            "NORMAL": 37
          },
          "indices": 38,
          "material": 6,
          "mode": 4
        },
        {
          "attributes": {
            "POSITION": 39,
            "NORMAL": 40
          },
          "indices": 41,
          "material": 7,
          "mode": 4
        },
        {
          "attributes": {
            "POSITION": 42,
            "NORMAL": 43
          },
          "indices": 44,
          "material": 8,
          "mode": 4
        }
      ]
    }
  ],
  "nodes": [
    {
      "name": "Car___Volkswagen_Golf__1991__RR_Wheel",
      "mesh": 0
    },
    {
      "name": "Car___Volkswagen_Golf__1991__LR_Wheel",
      "mesh": 1
    },
    {
      "name": "Car___Volkswagen_Golf__1991__RF_Wheel",
      "mesh": 2
    },
    {
      "name": "Car___Volkswagen_Golf__1991__LF_Wheel",
      "mesh": 3
    },
    {
      "name": "Car___Volkswagen_Golf__1991__body",
      "mesh": 4
    },
    {
      "name": "car1",
      "children": [0, 1, 2, 3, 4]
    }
  ],
  "scene": 0,
  "scenes": [
    {
      "nodes": [
        5
      ]
    }
  ]
}
