{
  "accessors": [
    {
      "name": "B747taiB_1_positions",
      "componentType": 5126,
      "count": 11369,
      "min": [
        -9081.46875,
        -2146.6875,
        -9128.21875
      ],
      "max": [
        6514.40625,
        2845.70703125,
        8638.5078125
      ],
      "type": "VEC3",
      "bufferView": 0,
      "byteOffset": 0
    },
    {
      "name": "B747taiB_1_normals",
      "componentType": 5126,
      "count": 11369,
      "min": [
        -1,
        -1,
        -1
      ],
      "max": [
        1,
        1,
        1
      ],
      "type": "VEC3",
      "bufferView": 0,
      "byteOffset": 136428
    },
    {
      "name": "B747taiB_1_texcoords",
      "componentType": 5126,
      "count": 11369,
      "min": [
        -1272.7816162109375,
        -2727.863525390625
      ],
      "max": [
        353.4375,
        2729.863525390625
      ],
      "type": "VEC2",
      "bufferView": 1,
      "byteOffset": 0
    },
    {
      "name": "B747taiB_1_0_indices",
      "componentType": 5123,
      "count": 279,
      "min": [
        0
      ],
      "max": [
        96
      ],
      "type": "SCALAR",
      "bufferView": 2,
      "byteOffset": 0
    },
    {
      "name": "B747taiB_1_1_indices",
      "componentType": 5123,
      "count": 2001,
      "min": [
        97
      ],
      "max": [
        892
      ],
      "type": "SCALAR",
      "bufferView": 2,
      "byteOffset": 560
    },
    {
      "name": "B747taiB_1_2_indices",
      "componentType": 5123,
      "count": 90,
      "min": [
        893
      ],
      "max": [
        934
      ],
      "type": "SCALAR",
      "bufferView": 2,
      "byteOffset": 4564
    },
    {
      "name": "B747taiB_1_3_indices",
      "componentType": 5123,
      "count": 2952,
      "min": [
        935
      ],
      "max": [
        2324
      ],
      "type": "SCALAR",
      "bufferView": 2,
      "byteOffset": 4744
    },
    {
      "name": "B747taiB_1_4_indices",
      "componentType": 5123,
      "count": 492,
      "min": [
        2325
      ],
      "max": [
        2785
      ],
      "type": "SCALAR",
      "bufferView": 2,
      "byteOffset": 10648
    },
    {
      "name": "B747taiB_1_5_indices",
      "componentType": 5123,
      "count": 7371,
      "min": [
        2786
      ],
      "max": [
        10104
      ],
      "type": "SCALAR",
      "bufferView": 2,
      "byteOffset": 11632
    },
    {
      "name": "B747taiB_1_6_indices",
      "componentType": 5123,
      "count": 474,
      "min": [
        3834
      ],
      "max": [
        4099
      ],
      "type": "SCALAR",
      "bufferView": 2,
      "byteOffset": 26376
    },
    {
      "name": "B747taiB_1_7_indices",
      "componentType": 5123,
      "count": 324,
      "min": [
        4100
      ],
      "max": [
        4215
      ],
      "type": "SCALAR",
      "bufferView": 2,
      "byteOffset": 27324
    },
    {
      "name": "B747taiB_1_8_indices",
      "componentType": 5123,
      "count": 3564,
      "min": [
        4216
      ],
      "max": [
        5403
      ],
      "type": "SCALAR",
      "bufferView": 2,
      "byteOffset": 27972
    },
    {
      "name": "B747taiB_1_9_indices",
      "componentType": 5123,
      "count": 11082,
      "min": [
        5404
      ],
      "max": [
        8372
      ],
      "type": "SCALAR",
      "bufferView": 2,
      "byteOffset": 35100
    },
    {
      "name": "B747taiB_1_10_indices",
      "componentType": 5123,
      "count": 264,
      "min": [
        10105
      ],
      "max": [
        10196
      ],
      "type": "SCALAR",
      "bufferView": 2,
      "byteOffset": 57264
    },
    {
      "name": "B747taiB_1_11_indices",
      "componentType": 5123,
      "count": 3288,
      "min": [
        10197
      ],
      "max": [
        11368
      ],
      "type": "SCALAR",
      "bufferView": 2,
      "byteOffset": 57792
    }
  ],
  "asset": {
    "generator": "obj2gltf",
    "version": "2.0"
  },
  "buffers": [
    {
      "name": "plane1",
      "byteLength": 428176,
      "uri": "data:application/octet-stream;base64,"
    }
  ],
  "bufferViews": [
    {
      "name": "bufferView_0",
      "buffer": 0,
      "byteLength": 272856,
      "byteOffset": 0,
      "byteStride": 12,
      "target": 34962
    },
    {
      "name": "bufferView_1",
      "buffer": 0,
      "byteLength": 90952,
      "byteOffset": 272856,
      "byteStride": 8,
      "target": 34962
    },
    {
      "name": "bufferView_2",
      "buffer": 0,
      "byteLength": 64368,
      "byteOffset": 363808,
      "target": 34963
    }
  ],
  "images": [
    {
      "name": "B747TAIB",
      "uri": "B747TAIB.jpg"
    },
    {
      "name": "B747SILV",
      "uri": "B747SILV.jpg"
    },
    {
      "name": "B747LINE",
      "uri": "B747LINE.jpg"
    },
    {
      "name": "B747LUFT",
      "uri": "B747LUFT.png"
    },
    {
      "name": "B747SIDE",
      "uri": "B747SIDE.jpg"
    },
    {
      "name": "B747TAIL",
      "uri": "B747TAIL.jpg"
    }
  ],
  "materials": [
    {
      "name": "B747taiB",
      "pbrMetallicRoughness": {
        "baseColorTexture": {
          "index": 0
        },
        "baseColorFactor": [
          1,
          1,
          1,
          1
        ],
        "metallicFactor": 0,
        "roughnessFactor": 0.86436
      },
      "emissiveFactor": [
        0,
        0,
        0
      ],
      "alphaMode": "OPAQUE",
      "doubleSided": false
    },
    {
      "name": "B747blck",
      "pbrMetallicRoughness": {
        "baseColorFactor": [
          0.0314,
          0.0314,
          0.0314,
          1
        ],
        "metallicFactor": 0,
        "roughnessFactor": 0.9479148000000001
      },
      "emissiveFactor": [
        0,
        0,
        0
      ],
      "alphaMode": "OPAQUE",
      "doubleSided": false
    },
    {
      "name": "B747cpit",
      "pbrMetallicRoughness": {
        "baseColorFactor": [
          0,
          0,
          0,
          0.7
        ],
        "metallicFactor": 0,
        "roughnessFactor": 0.855
      },
      "emissiveFactor": [
        0,
        0,
        0
      ],
      "alphaMode": "BLEND",
      "doubleSided": true
    },
    {
      "name": "B747glas",
      "pbrMetallicRoughness": {
        "baseColorFactor": [
          0,
          0,
          0,
          0.7
        ],
        "metallicFactor": 0,
        "roughnessFactor": 0.855
      },
      "emissiveFactor": [
        0,
        0,
        0
      ],
      "alphaMode": "BLEND",
      "doubleSided": true
    },
    {
      "name": "B747grey",
      "pbrMetallicRoughness": {
        "baseColorTexture": {
          "index": 1
        },
        "baseColorFactor": [
          1,
          1,
          1,
          1
        ],
        "metallicFactor": 0,
        "roughnessFactor": 0.86436
      },
      "emissiveFactor": [
        0,
        0,
        0
      ],
      "alphaMode": "OPAQUE",
      "doubleSided": false
    },
    {
      "name": "B747silv",
      "pbrMetallicRoughness": {
        "baseColorTexture": {
          "index": 1
        },
        "baseColorFactor": [
          1,
          1,
          1,
          1
        ],
        "metallicFactor": 0,
        "roughnessFactor": 0.86436
      },
      "emissiveFactor": [
        0,
        0,
        0
      ],
      "alphaMode": "OPAQUE",
      "doubleSided": false
    },
    {
      "name": "B747line",
      "pbrMetallicRoughness": {
        "baseColorFactor": [
          0.2118,
          0.2118,
          0.2118,
          1
        ],
        "metallicFactor": 0,
        "roughnessFactor": 0.9594396000000001
      },
      "normalTexture": {
        "index": 2
      },
      "emissiveFactor": [
        0,
        0,
        0
      ],
      "alphaMode": "OPAQUE",
      "doubleSided": false
    },
    {
      "name": "B747luft",
      "pbrMetallicRoughness": {
        "baseColorTexture": {
          "index": 3
        },
        "baseColorFactor": [
          1,
          1,
          1,
          1
        ],
        "metallicFactor": 0,
        "roughnessFactor": 0.9594396000000001
      },
      "emissiveFactor": [
        0,
        0,
        0
      ],
      "alphaMode": "BLEND",
      "doubleSided": true
    },
    {
      "name": "B747mark",
      "pbrMetallicRoughness": {
        "baseColorFactor": [
          0.0314,
          0.0314,
          0.0314,
          1
        ],
        "metallicFactor": 0,
        "roughnessFactor": 0.9479148000000001
      },
      "emissiveFactor": [
        0,
        0,
        0
      ],
      "alphaMode": "OPAQUE",
      "doubleSided": false
    },
    {
      "name": "B747side",
      "pbrMetallicRoughness": {
        "baseColorTexture": {
          "index": 4
        },
        "baseColorFactor": [
          1,
          1,
          1,
          1
        ],
        "metallicFactor": 0,
        "roughnessFactor": 0.86436
      },
      "emissiveFactor": [
        0,
        0,
        0
      ],
      "alphaMode": "OPAQUE",
      "doubleSided": false
    },
    {
      "name": "B747tail",
      "pbrMetallicRoughness": {
        "baseColorTexture": {
          "index": 5
        },
        "baseColorFactor": [
          1,
          1,
          1,
          1
        ],
        "metallicFactor": 0,
        "roughnessFactor": 0.86436
      },
      "emissiveFactor": [
        0,
        0,
        0
      ],
      "alphaMode": "OPAQUE",
      "doubleSided": false
    },
    {
      "name": "B747whit",
      "pbrMetallicRoughness": {
        "baseColorFactor": [
          0.5529,
          0.5529,
          0.5529,
          1
        ],
        "metallicFactor": 0,
        "roughnessFactor": 0.86436
      },
      "emissiveFactor": [
        0,
        0,
        0
      ],
      "alphaMode": "OPAQUE",
      "doubleSided": false
    }
  ],
  "meshes": [
    {
      "name": "B747taiB_1",
      "primitives": [
        {
          "attributes": {
            "POSITION": 0,
            "NORMAL": 1,
            "TEXCOORD_0": 2
          },
          "indices": 3,
          "material": 0,
          "mode": 4
        },
        {
          "attributes": {
            "POSITION": 0,
            "NORMAL": 1,
            "TEXCOORD_0": 2
          },
          "indices": 4,
          "material": 1,
          "mode": 4
        },
        {
          "attributes": {
            "POSITION": 0,
            "NORMAL": 1,
            "TEXCOORD_0": 2
          },
          "indices": 5,
          "material": 2,
          "mode": 4
        },
        {
          "attributes": {
            "POSITION": 0,
            "NORMAL": 1,
            "TEXCOORD_0": 2
          },
          "indices": 6,
          "material": 3,
          "mode": 4
        },
        {
          "attributes": {
            "POSITION": 0,
            "NORMAL": 1,
            "TEXCOORD_0": 2
          },
          "indices": 7,
          "material": 4,
          "mode": 4
        },
        {
          "attributes": {
            "POSITION": 0,
            "NORMAL": 1,
            "TEXCOORD_0": 2
          },
          "indices": 8,
          "material": 5,
          "mode": 4
        },
        {
          "attributes": {
            "POSITION": 0,
            "NORMAL": 1,
            "TEXCOORD_0": 2
          },
          "indices": 9,
          "material": 6,
          "mode": 4
        },
        {
          "attributes": {
            "POSITION": 0,
            "NORMAL": 1,
            "TEXCOORD_0": 2
          },
          "indices": 10,
          "material": 7,
          "mode": 4
        },
        {
          "attributes": {
            "POSITION": 0,
            "NORMAL": 1,
            "TEXCOORD_0": 2
          },
          "indices": 11,
          "material": 8,
          "mode": 4
        },
        {
          "attributes": {
            "POSITION": 0,
            "NORMAL": 1,
            "TEXCOORD_0": 2
          },
          "indices": 12,
          "material": 9,
          "mode": 4
        },
        {
          "attributes": {
            "POSITION": 0,
            "NORMAL": 1,
            "TEXCOORD_0": 2
          },
          "indices": 13,
          "material": 10,
          "mode": 4
        },
        {
          "attributes": {
            "POSITION": 0,
            "NORMAL": 1,
            "TEXCOORD_0": 2
          },
          "indices": 14,
          "material": 11,
          "mode": 4
        }
      ]
    }
  ],
  "nodes": [
    {
      "name": "B747taiB",
      "mesh": 0
    }
  ],
  "samplers": [
    {
      "magFilter": 9729,
      "minFilter": 9986,
      "wrapS": 10497,
      "wrapT": 10497
    }
  ],
  "scene": 0,
  "scenes": [
    {
      "nodes": [
        0
      ]
    }
  ],
  "textures": [
    {
      "name": "B747TAIB",
      "sampler": 0,
      "source": 0
    },
    {
      "name": "B747SILV",
      "sampler": 0,
      "source": 1
    },
    {
      "name": "B747LINE",
      "sampler": 0,
      "source": 2
    },
    {
      "name": "B747LUFT",
      "sampler": 0,
      "source": 3
    },
    {
      "name": "B747SIDE",
      "sampler": 0,
      "source": 4
    },
    {
      "name": "B747TAIL",
      "sampler": 0,
      "source": 5
    }
  ]
}
